<mxfile host="65bd71144e">
    <diagram id="8OBayJcKBaSxkwDK-Ij-" name="Page-1">
        <mxGraphModel dx="811" dy="1843" grid="1" gridSize="10" guides="1" tooltips="1" connect="1" arrows="1" fold="1" page="1" pageScale="1" pageWidth="827" pageHeight="1169" math="0" shadow="0">
            <root>
                <mxCell id="0"/>
                <mxCell id="1" parent="0"/>
                <mxCell id="4" value="" style="rounded=1;whiteSpace=wrap;html=1;fillColor=#FFFFFF;strokeColor=#666666;arcSize=6;fontColor=#333333;" parent="1" vertex="1">
                    <mxGeometry x="29" y="-110" width="1291" height="660" as="geometry"/>
                </mxCell>
                <mxCell id="5" value="&lt;font color=&quot;#000000&quot;&gt;Parsing (Python)&lt;/font&gt;" style="outlineConnect=0;dashed=0;verticalLabelPosition=bottom;verticalAlign=top;align=center;html=1;shape=mxgraph.aws3.android;fillColor=#0050ef;strokeColor=#001DBC;fontColor=#ffffff;" parent="1" vertex="1">
                    <mxGeometry x="420.13" y="130" width="73.5" height="84" as="geometry"/>
                </mxCell>
                <mxCell id="6" value="&lt;font color=&quot;#000000&quot;&gt;Python + Flask&lt;/font&gt;" style="outlineConnect=0;dashed=0;verticalLabelPosition=bottom;verticalAlign=top;align=center;html=1;shape=mxgraph.aws3.android;fillColor=#0050ef;fontColor=#ffffff;strokeColor=#001DBC;" parent="1" vertex="1">
                    <mxGeometry x="631.75" y="371.8" width="73.5" height="84" as="geometry"/>
                </mxCell>
                <mxCell id="7" value="&lt;font style=&quot;&quot; color=&quot;#000000&quot;&gt;ES (Docker container)&lt;/font&gt;" style="sketch=0;aspect=fixed;html=1;points=[];align=center;image;fontSize=12;image=img/lib/mscae/Docker.svg;labelBackgroundColor=none;" parent="1" vertex="1">
                    <mxGeometry x="874.5" y="378" width="90" height="73.8" as="geometry"/>
                </mxCell>
                <mxCell id="8" value="&lt;font color=&quot;#000000&quot;&gt;DataBase&lt;/font&gt;" style="outlineConnect=0;dashed=0;verticalLabelPosition=bottom;verticalAlign=top;align=center;html=1;shape=mxgraph.aws3.mysql_db_instance;fillColor=#0050ef;fontColor=#ffffff;strokeColor=#001DBC;" parent="1" vertex="1">
                    <mxGeometry x="644.5" y="230" width="60" height="64.5" as="geometry"/>
                </mxCell>
                <mxCell id="9" value="Clent" style="sketch=0;outlineConnect=0;fontColor=#232F3E;gradientColor=none;fillColor=#232F3D;strokeColor=none;dashed=0;verticalLabelPosition=bottom;verticalAlign=top;align=center;html=1;fontSize=12;fontStyle=0;aspect=fixed;pointerEvents=1;shape=mxgraph.aws4.client;" parent="1" vertex="1">
                    <mxGeometry x="384.5" y="375.8" width="78" height="76" as="geometry"/>
                </mxCell>
                <mxCell id="11" value="localhost:9200" style="endArrow=classic;html=1;fontColor=#000000;entryX=0.5;entryY=0;entryDx=0;entryDy=0;entryPerimeter=0;strokeWidth=5;strokeColor=#000000;labelBackgroundColor=none;" parent="1" source="5" target="8" edge="1">
                    <mxGeometry x="-0.1201" y="-19" width="50" height="50" relative="1" as="geometry">
                        <mxPoint x="990" y="319" as="sourcePoint"/>
                        <mxPoint x="1160.0000000000002" y="251" as="targetPoint"/>
                        <Array as="points">
                            <mxPoint x="675" y="170"/>
                        </Array>
                        <mxPoint as="offset"/>
                    </mxGeometry>
                </mxCell>
                <mxCell id="13" value="localhost:5000" style="shape=flexArrow;endArrow=classic;startArrow=classic;html=1;strokeColor=#000000;strokeWidth=4;fontColor=#000000;labelBackgroundColor=none;" parent="1" source="9" target="6" edge="1">
                    <mxGeometry x="-0.027" y="20" width="100" height="100" relative="1" as="geometry">
                        <mxPoint x="614.5" y="313.3" as="sourcePoint"/>
                        <mxPoint x="714.5" y="213.3" as="targetPoint"/>
                        <mxPoint as="offset"/>
                    </mxGeometry>
                </mxCell>
                <mxCell id="14" value="localhost:3306" style="shape=flexArrow;endArrow=classic;startArrow=classic;html=1;strokeColor=#000000;strokeWidth=4;fontColor=#000000;labelBackgroundColor=none;exitX=0.5;exitY=0;exitDx=0;exitDy=0;exitPerimeter=0;entryX=0;entryY=0.5;entryDx=0;entryDy=0;entryPerimeter=0;" parent="1" source="6" target="8" edge="1">
                    <mxGeometry x="-0.3052" y="20" width="100" height="100" relative="1" as="geometry">
                        <mxPoint x="898.0783582089553" y="512" as="sourcePoint"/>
                        <mxPoint x="945.75" y="353.5" as="targetPoint"/>
                        <Array as="points">
                            <mxPoint x="670" y="340"/>
                            <mxPoint x="580" y="340"/>
                            <mxPoint x="580" y="262"/>
                        </Array>
                        <mxPoint as="offset"/>
                    </mxGeometry>
                </mxCell>
                <mxCell id="15" value="&lt;font style=&quot;font-size: 11px;&quot;&gt;localhost:9200&lt;/font&gt;" style="shape=flexArrow;endArrow=classic;startArrow=classic;html=1;strokeColor=#000000;strokeWidth=4;fontColor=#000000;fontSize=7;labelBackgroundColor=none;" parent="1" source="6" target="7" edge="1">
                    <mxGeometry x="-0.0645" y="21" width="100" height="100" relative="1" as="geometry">
                        <mxPoint x="614.5" y="313.3" as="sourcePoint"/>
                        <mxPoint x="714.5" y="213.3" as="targetPoint"/>
                        <mxPoint as="offset"/>
                    </mxGeometry>
                </mxCell>
                <mxCell id="17" value="" style="rounded=1;whiteSpace=wrap;html=1;fillColor=#FFFFFF;fontColor=#333333;strokeColor=#666666;" parent="1" vertex="1">
                    <mxGeometry x="40" y="600" width="770" height="360" as="geometry"/>
                </mxCell>
                <mxCell id="18" value="Python + Flask" style="sketch=0;aspect=fixed;html=1;points=[];align=center;image;fontSize=12;image=img/lib/mscae/Docker.svg;labelBackgroundColor=none;fontColor=#000000;" parent="1" vertex="1">
                    <mxGeometry x="361" y="625" width="73.17" height="60" as="geometry"/>
                </mxCell>
                <mxCell id="19" value="MySQL" style="sketch=0;aspect=fixed;html=1;points=[];align=center;image;fontSize=12;image=img/lib/mscae/Docker.svg;labelBackgroundColor=none;fontColor=#000000;" parent="1" vertex="1">
                    <mxGeometry x="361" y="710" width="73.17" height="60" as="geometry"/>
                </mxCell>
                <mxCell id="20" value="Parsing" style="sketch=0;aspect=fixed;html=1;points=[];align=center;image;fontSize=12;image=img/lib/mscae/Docker.svg;labelBackgroundColor=none;fontColor=#000000;" parent="1" vertex="1">
                    <mxGeometry x="361" y="790" width="73.17" height="60" as="geometry"/>
                </mxCell>
                <mxCell id="21" value="ElasticSearch" style="sketch=0;aspect=fixed;html=1;points=[];align=center;image;fontSize=12;image=img/lib/mscae/Docker.svg;labelBackgroundColor=none;fontColor=#000000;" parent="1" vertex="1">
                    <mxGeometry x="361" y="870" width="73.17" height="60" as="geometry"/>
                </mxCell>
                <mxCell id="22" value="&lt;font color=&quot;#000000&quot;&gt;Dockerfile&lt;/font&gt;" style="verticalLabelPosition=bottom;html=1;verticalAlign=top;align=center;shape=mxgraph.azure.cloud_services_configuration_file;pointerEvents=1;labelBackgroundColor=none;fontSize=11;" parent="1" vertex="1">
                    <mxGeometry x="95.75" y="870" width="47.5" height="50" as="geometry"/>
                </mxCell>
                <mxCell id="23" value="&lt;font color=&quot;#000000&quot;&gt;Dockerfile&lt;/font&gt;" style="verticalLabelPosition=bottom;html=1;verticalAlign=top;align=center;shape=mxgraph.azure.cloud_services_configuration_file;pointerEvents=1;labelBackgroundColor=none;fontSize=11;" parent="1" vertex="1">
                    <mxGeometry x="95.75" y="790" width="47.5" height="50" as="geometry"/>
                </mxCell>
                <mxCell id="24" value="&lt;font color=&quot;#000000&quot;&gt;Dockerfile&lt;/font&gt;" style="verticalLabelPosition=bottom;html=1;verticalAlign=top;align=center;shape=mxgraph.azure.cloud_services_configuration_file;pointerEvents=1;labelBackgroundColor=none;fontSize=11;" parent="1" vertex="1">
                    <mxGeometry x="95.75" y="710" width="47.5" height="50" as="geometry"/>
                </mxCell>
                <mxCell id="25" value="&lt;font color=&quot;#000000&quot;&gt;Dockerfile&lt;/font&gt;" style="verticalLabelPosition=bottom;html=1;verticalAlign=top;align=center;shape=mxgraph.azure.cloud_services_configuration_file;pointerEvents=1;labelBackgroundColor=none;fontSize=11;" parent="1" vertex="1">
                    <mxGeometry x="95.75" y="625" width="47.5" height="50" as="geometry"/>
                </mxCell>
                <mxCell id="27" value="" style="endArrow=classic;html=1;labelBackgroundColor=none;strokeColor=#000000;strokeWidth=4;fontSize=11;fontColor=#000000;exitX=1;exitY=0.5;exitDx=0;exitDy=0;exitPerimeter=0;entryX=0;entryY=0.417;entryDx=0;entryDy=0;entryPerimeter=0;" parent="1" source="25" target="18" edge="1">
                    <mxGeometry width="50" height="50" relative="1" as="geometry">
                        <mxPoint x="401" y="700" as="sourcePoint"/>
                        <mxPoint x="451" y="650" as="targetPoint"/>
                    </mxGeometry>
                </mxCell>
                <mxCell id="28" value="" style="endArrow=classic;html=1;labelBackgroundColor=none;strokeColor=#000000;strokeWidth=4;fontSize=11;fontColor=#000000;exitX=1;exitY=0.5;exitDx=0;exitDy=0;exitPerimeter=0;entryX=-0.003;entryY=0.437;entryDx=0;entryDy=0;entryPerimeter=0;" parent="1" source="24" target="19" edge="1">
                    <mxGeometry width="50" height="50" relative="1" as="geometry">
                        <mxPoint x="147.59750000000008" y="668.5999999999999" as="sourcePoint"/>
                        <mxPoint x="361" y="740" as="targetPoint"/>
                    </mxGeometry>
                </mxCell>
                <mxCell id="29" value="" style="endArrow=classic;html=1;labelBackgroundColor=none;strokeColor=#000000;strokeWidth=4;fontSize=11;fontColor=#000000;exitX=1;exitY=0.5;exitDx=0;exitDy=0;exitPerimeter=0;entryX=-0.014;entryY=0.41;entryDx=0;entryDy=0;entryPerimeter=0;" parent="1" source="23" target="20" edge="1">
                    <mxGeometry width="50" height="50" relative="1" as="geometry">
                        <mxPoint x="157.59750000000008" y="678.5999999999999" as="sourcePoint"/>
                        <mxPoint x="361" y="810" as="targetPoint"/>
                    </mxGeometry>
                </mxCell>
                <mxCell id="30" value="" style="endArrow=classic;html=1;labelBackgroundColor=none;strokeColor=#000000;strokeWidth=4;fontSize=11;fontColor=#000000;exitX=1;exitY=0.5;exitDx=0;exitDy=0;exitPerimeter=0;" parent="1" source="22" edge="1">
                    <mxGeometry width="50" height="50" relative="1" as="geometry">
                        <mxPoint x="167.59750000000008" y="688.5999999999999" as="sourcePoint"/>
                        <mxPoint x="361" y="895" as="targetPoint"/>
                    </mxGeometry>
                </mxCell>
                <mxCell id="31" value="DockerHub" style="editableCssRules=.*;shape=image;verticalLabelPosition=bottom;labelBackgroundColor=none;verticalAlign=top;aspect=fixed;imageAspect=0;image=data:image/svg+xml,PHN2ZyB4bWxucz0iaHR0cDovL3d3dy53My5vcmcvMjAwMC9zdmciIHhtbG5zOnY9Imh0dHBzOi8vdmVjdGEuaW8vbmFubyIgd2lkdGg9IjM2Mi4yMjI0NzgzNzUzNTMxNSIgaGVpZ2h0PSIzNzcuMzU5NDg0NzI1NTkyNSIgdmlld0JveD0iNjcuMzQ3OTk5NTcyNzUzOSAxMDguNjg4MDAzNTQwMDM5MDYgOTUuODM4MDA1MDY1OTE3OTcgOTkuODQzMDAyMzE5MzM1OTQiPiYjeGE7PHN0eWxlIHR5cGU9InRleHQvY3NzIj4mI3hhOwkuc3Qwe2ZpbGw6IzY2OWRmNjt9JiN4YTsJLnN0MXtmaWxsOiNhZWNiZmE7fSYjeGE7CS5zdDJ7ZmlsbDojNDI4NWY0O30mI3hhOzwvc3R5bGU+JiN4YTsJPHBhdGggY2xhc3M9InN0MCIgZD0iTTk2LjE5OSAxNzMuODAxdjI1Ljk5bDE5LjE4MSA4Ljc0di0yNS45MjZ6bTQuNzcxIDguNjYybDkuNjczIDQuNDA4djEyLjk4NWwtOS42NzMtNC4zNzV6bS00Ljc3MS0zOC45Njl2MjEuNjg2bDE5LjE4MSA4LjczMnYtMjEuNjg0bC00LjczNy0yLjA5NXYxNS4wNmwtOS42NzMtNC4zOTV2LTE1LjE3ek02Ny4zNDggMTMwLjMydjU2LjU1bDE5LjExNCA4Ljc4M3YtNTYuNjU4bC00LjczNC0yLjEyN3Y0OS45MDhsLTkuNTUzLTQuMzgxVjEzMi40OXoiLz4mI3hhOwk8cGF0aCBjbGFzcz0ic3QxIiBkPSJNOTYuMTE2IDExNy4zMTZsMTkuMjY0LTguNjI4IDQ3LjgwNiAyMS43NjMtMTguNzkgOC42MzJ6bTE5LjI2NCAzNC45MTJsLTE5LjE4MS04Ljc0NiAxOS4xODEtOC43MzkgMTkuMjE1IDguNzU5ek04Ni40NjIgMTM5LjA2bC0xOS4xMTQtOC43NDYgMTkuMTE0LTguNzM5IDE5LjM2MiA4Ljc1OXoiLz4mI3hhOwk8cGF0aCBjbGFzcz0ic3QyIiBkPSJNMTQ0LjM5NiAxNjAuNjEzdi0yMS41M2wxOC43OS04LjYzMnYyMS42NTd6TTExNS4zOCAxODIuNTNsNDcuODA2LTIxLjcxMnYyNS45MDRsLTQ3LjgwNiAyMS42MjZ6bTAtOC42MTh2LTIxLjY4NGwxOS4yMTUtOC43MzJ2MjEuNTQ1eiIvPiYjeGE7PC9zdmc+;fontSize=11;fontColor=#000000;" parent="1" vertex="1">
                    <mxGeometry x="640.38" y="720" width="92.63" height="97.5" as="geometry"/>
                </mxCell>
                <mxCell id="32" value="" style="endArrow=classic;html=1;labelBackgroundColor=none;strokeColor=#000000;strokeWidth=4;fontSize=11;fontColor=#000000;entryX=0.007;entryY=0.205;entryDx=0;entryDy=0;exitX=0.992;exitY=0.4;exitDx=0;exitDy=0;exitPerimeter=0;entryPerimeter=0;" parent="1" source="18" target="31" edge="1">
                    <mxGeometry width="50" height="50" relative="1" as="geometry">
                        <mxPoint x="271" y="650" as="sourcePoint"/>
                        <mxPoint x="451" y="650" as="targetPoint"/>
                        <Array as="points">
                            <mxPoint x="491" y="650"/>
                            <mxPoint x="491" y="740"/>
                        </Array>
                    </mxGeometry>
                </mxCell>
                <mxCell id="33" value="" style="endArrow=classic;html=1;labelBackgroundColor=none;strokeColor=#000000;strokeWidth=4;fontSize=11;fontColor=#000000;entryX=0.007;entryY=0.41;entryDx=0;entryDy=0;exitX=0.957;exitY=0.5;exitDx=0;exitDy=0;exitPerimeter=0;entryPerimeter=0;" parent="1" source="19" target="31" edge="1">
                    <mxGeometry width="50" height="50" relative="1" as="geometry">
                        <mxPoint x="431" y="730" as="sourcePoint"/>
                        <mxPoint x="451" y="650" as="targetPoint"/>
                        <Array as="points">
                            <mxPoint x="471" y="740"/>
                            <mxPoint x="471" y="761"/>
                            <mxPoint x="531" y="761"/>
                        </Array>
                    </mxGeometry>
                </mxCell>
                <mxCell id="34" value="" style="endArrow=classic;html=1;labelBackgroundColor=none;strokeColor=#000000;strokeWidth=4;fontSize=11;fontColor=#000000;exitX=1.025;exitY=0.477;exitDx=0;exitDy=0;exitPerimeter=0;" parent="1" source="20" edge="1">
                    <mxGeometry width="50" height="50" relative="1" as="geometry">
                        <mxPoint x="271" y="810" as="sourcePoint"/>
                        <mxPoint x="641" y="780" as="targetPoint"/>
                        <Array as="points">
                            <mxPoint x="471" y="819"/>
                            <mxPoint x="471" y="780"/>
                            <mxPoint x="531" y="780"/>
                            <mxPoint x="561" y="780"/>
                        </Array>
                    </mxGeometry>
                </mxCell>
                <mxCell id="36" value="" style="endArrow=classic;html=1;labelBackgroundColor=none;strokeColor=#000000;strokeWidth=4;fontSize=11;fontColor=#000000;entryX=-0.013;entryY=0.814;entryDx=0;entryDy=0;exitX=0.981;exitY=0.49;exitDx=0;exitDy=0;exitPerimeter=0;entryPerimeter=0;" parent="1" source="21" target="31" edge="1">
                    <mxGeometry width="50" height="50" relative="1" as="geometry">
                        <mxPoint x="401" y="700" as="sourcePoint"/>
                        <mxPoint x="451" y="650" as="targetPoint"/>
                        <Array as="points">
                            <mxPoint x="491" y="900"/>
                            <mxPoint x="491" y="800"/>
                            <mxPoint x="561" y="800"/>
                        </Array>
                    </mxGeometry>
                </mxCell>
                <mxCell id="37" value="" style="rounded=1;whiteSpace=wrap;html=1;fillColor=#FFFFFF;fontColor=#333333;strokeColor=#666666;" parent="1" vertex="1">
                    <mxGeometry x="40" y="1010" width="770" height="360" as="geometry"/>
                </mxCell>
                <mxCell id="38" value="&lt;font color=&quot;#000000&quot;&gt;.yaml&lt;/font&gt;" style="verticalLabelPosition=bottom;html=1;verticalAlign=top;align=center;shape=mxgraph.azure.code_file;pointerEvents=1;labelBackgroundColor=none;fontSize=11;" parent="1" vertex="1">
                    <mxGeometry x="95.75" y="1050" width="47.5" height="50" as="geometry"/>
                </mxCell>
                <mxCell id="39" value="&lt;font color=&quot;#000000&quot;&gt;.yaml&lt;/font&gt;" style="verticalLabelPosition=bottom;html=1;verticalAlign=top;align=center;shape=mxgraph.azure.code_file;pointerEvents=1;labelBackgroundColor=none;fontSize=11;" parent="1" vertex="1">
                    <mxGeometry x="95.75" y="1130" width="47.5" height="50" as="geometry"/>
                </mxCell>
                <mxCell id="40" value="&lt;font color=&quot;#000000&quot;&gt;.yaml&lt;/font&gt;" style="verticalLabelPosition=bottom;html=1;verticalAlign=top;align=center;shape=mxgraph.azure.code_file;pointerEvents=1;labelBackgroundColor=none;fontSize=11;" parent="1" vertex="1">
                    <mxGeometry x="95.75" y="1209" width="47.5" height="50" as="geometry"/>
                </mxCell>
                <mxCell id="41" value="&lt;font color=&quot;#000000&quot;&gt;.yaml&lt;/font&gt;" style="verticalLabelPosition=bottom;html=1;verticalAlign=top;align=center;shape=mxgraph.azure.code_file;pointerEvents=1;labelBackgroundColor=none;fontSize=11;" parent="1" vertex="1">
                    <mxGeometry x="95.75" y="1290" width="47.5" height="50" as="geometry"/>
                </mxCell>
                <mxCell id="43" value="&lt;font color=&quot;#000000&quot;&gt;EKS&lt;/font&gt;" style="sketch=0;points=[[0,0,0],[0.25,0,0],[0.5,0,0],[0.75,0,0],[1,0,0],[0,1,0],[0.25,1,0],[0.5,1,0],[0.75,1,0],[1,1,0],[0,0.25,0],[0,0.5,0],[0,0.75,0],[1,0.25,0],[1,0.5,0],[1,0.75,0]];outlineConnect=0;gradientDirection=north;dashed=0;verticalLabelPosition=bottom;verticalAlign=top;align=center;html=1;fontSize=12;fontStyle=0;aspect=fixed;shape=mxgraph.aws4.resourceIcon;resIcon=mxgraph.aws4.eks_anywhere;labelBackgroundColor=none;" parent="1" vertex="1">
                    <mxGeometry x="301" y="1151" width="78" height="78" as="geometry"/>
                </mxCell>
                <mxCell id="45" value="DockerHub" style="editableCssRules=.*;shape=image;verticalLabelPosition=bottom;labelBackgroundColor=none;verticalAlign=top;aspect=fixed;imageAspect=0;image=data:image/svg+xml,PHN2ZyB4bWxucz0iaHR0cDovL3d3dy53My5vcmcvMjAwMC9zdmciIHhtbG5zOnY9Imh0dHBzOi8vdmVjdGEuaW8vbmFubyIgd2lkdGg9IjM2Mi4yMjI0NzgzNzUzNTMxNSIgaGVpZ2h0PSIzNzcuMzU5NDg0NzI1NTkyNSIgdmlld0JveD0iNjcuMzQ3OTk5NTcyNzUzOSAxMDguNjg4MDAzNTQwMDM5MDYgOTUuODM4MDA1MDY1OTE3OTcgOTkuODQzMDAyMzE5MzM1OTQiPiYjeGE7PHN0eWxlIHR5cGU9InRleHQvY3NzIj4mI3hhOwkuc3Qwe2ZpbGw6IzY2OWRmNjt9JiN4YTsJLnN0MXtmaWxsOiNhZWNiZmE7fSYjeGE7CS5zdDJ7ZmlsbDojNDI4NWY0O30mI3hhOzwvc3R5bGU+JiN4YTsJPHBhdGggY2xhc3M9InN0MCIgZD0iTTk2LjE5OSAxNzMuODAxdjI1Ljk5bDE5LjE4MSA4Ljc0di0yNS45MjZ6bTQuNzcxIDguNjYybDkuNjczIDQuNDA4djEyLjk4NWwtOS42NzMtNC4zNzV6bS00Ljc3MS0zOC45Njl2MjEuNjg2bDE5LjE4MSA4LjczMnYtMjEuNjg0bC00LjczNy0yLjA5NXYxNS4wNmwtOS42NzMtNC4zOTV2LTE1LjE3ek02Ny4zNDggMTMwLjMydjU2LjU1bDE5LjExNCA4Ljc4M3YtNTYuNjU4bC00LjczNC0yLjEyN3Y0OS45MDhsLTkuNTUzLTQuMzgxVjEzMi40OXoiLz4mI3hhOwk8cGF0aCBjbGFzcz0ic3QxIiBkPSJNOTYuMTE2IDExNy4zMTZsMTkuMjY0LTguNjI4IDQ3LjgwNiAyMS43NjMtMTguNzkgOC42MzJ6bTE5LjI2NCAzNC45MTJsLTE5LjE4MS04Ljc0NiAxOS4xODEtOC43MzkgMTkuMjE1IDguNzU5ek04Ni40NjIgMTM5LjA2bC0xOS4xMTQtOC43NDYgMTkuMTE0LTguNzM5IDE5LjM2MiA4Ljc1OXoiLz4mI3hhOwk8cGF0aCBjbGFzcz0ic3QyIiBkPSJNMTQ0LjM5NiAxNjAuNjEzdi0yMS41M2wxOC43OS04LjYzMnYyMS42NTd6TTExNS4zOCAxODIuNTNsNDcuODA2LTIxLjcxMnYyNS45MDRsLTQ3LjgwNiAyMS42MjZ6bTAtOC42MTh2LTIxLjY4NGwxOS4yMTUtOC43MzJ2MjEuNTQ1eiIvPiYjeGE7PC9zdmc+;fontSize=11;fontColor=#000000;" parent="1" vertex="1">
                    <mxGeometry x="401" y="1242.5" width="92.63" height="97.5" as="geometry"/>
                </mxCell>
                <mxCell id="46" value="" style="endArrow=classic;html=1;labelBackgroundColor=none;strokeColor=#000000;strokeWidth=4;fontSize=11;fontColor=#000000;exitX=1;exitY=0.5;exitDx=0;exitDy=0;exitPerimeter=0;" parent="1" source="38" edge="1">
                    <mxGeometry width="50" height="50" relative="1" as="geometry">
                        <mxPoint x="331" y="1100" as="sourcePoint"/>
                        <mxPoint x="301" y="1160" as="targetPoint"/>
                        <Array as="points">
                            <mxPoint x="221" y="1075"/>
                            <mxPoint x="221" y="1160"/>
                        </Array>
                    </mxGeometry>
                </mxCell>
                <mxCell id="47" value="" style="endArrow=classic;html=1;labelBackgroundColor=none;strokeColor=#000000;strokeWidth=4;fontSize=11;fontColor=#000000;exitX=1;exitY=0.5;exitDx=0;exitDy=0;exitPerimeter=0;" parent="1" source="39" edge="1">
                    <mxGeometry width="50" height="50" relative="1" as="geometry">
                        <mxPoint x="331" y="1100" as="sourcePoint"/>
                        <mxPoint x="301" y="1180" as="targetPoint"/>
                        <Array as="points">
                            <mxPoint x="201" y="1155"/>
                            <mxPoint x="201" y="1180"/>
                        </Array>
                    </mxGeometry>
                </mxCell>
                <mxCell id="48" value="" style="endArrow=classic;html=1;labelBackgroundColor=none;strokeColor=#000000;strokeWidth=4;fontSize=11;fontColor=#000000;exitX=1;exitY=0.5;exitDx=0;exitDy=0;exitPerimeter=0;" parent="1" source="40" edge="1">
                    <mxGeometry width="50" height="50" relative="1" as="geometry">
                        <mxPoint x="331" y="1100" as="sourcePoint"/>
                        <mxPoint x="301" y="1200" as="targetPoint"/>
                        <Array as="points">
                            <mxPoint x="201" y="1234"/>
                            <mxPoint x="201" y="1200"/>
                        </Array>
                    </mxGeometry>
                </mxCell>
                <mxCell id="49" value="" style="endArrow=classic;html=1;labelBackgroundColor=none;strokeColor=#000000;strokeWidth=4;fontSize=11;fontColor=#000000;exitX=1;exitY=0.5;exitDx=0;exitDy=0;exitPerimeter=0;" parent="1" source="41" edge="1">
                    <mxGeometry width="50" height="50" relative="1" as="geometry">
                        <mxPoint x="331" y="1100" as="sourcePoint"/>
                        <mxPoint x="301" y="1220" as="targetPoint"/>
                        <Array as="points">
                            <mxPoint x="221" y="1315"/>
                            <mxPoint x="221" y="1250"/>
                            <mxPoint x="221" y="1220"/>
                        </Array>
                    </mxGeometry>
                </mxCell>
                <mxCell id="50" value="" style="endArrow=classic;html=1;labelBackgroundColor=none;strokeColor=#000000;strokeWidth=4;fontSize=11;fontColor=#000000;exitX=0.5;exitY=0;exitDx=0;exitDy=0;entryX=1;entryY=0.75;entryDx=0;entryDy=0;entryPerimeter=0;" parent="1" source="45" target="43" edge="1">
                    <mxGeometry width="50" height="50" relative="1" as="geometry">
                        <mxPoint x="331" y="1100" as="sourcePoint"/>
                        <mxPoint x="381" y="1050" as="targetPoint"/>
                        <Array as="points">
                            <mxPoint x="447" y="1210"/>
                        </Array>
                    </mxGeometry>
                </mxCell>
                <mxCell id="51" value="&lt;font style=&quot;font-size: 13px;&quot;&gt;Services&lt;/font&gt;" style="rounded=1;whiteSpace=wrap;html=1;labelBackgroundColor=none;fontSize=11;fontColor=#000000;rotation=0;fillColor=#f5f5f5;strokeColor=#000000;strokeWidth=4;spacing=2;" parent="1" vertex="1">
                    <mxGeometry x="581" y="1130" width="160" height="120" as="geometry"/>
                </mxCell>
                <mxCell id="52" value="" style="endArrow=classic;html=1;labelBackgroundColor=none;strokeColor=#000000;strokeWidth=4;fontSize=11;fontColor=#000000;exitX=1;exitY=0.5;exitDx=0;exitDy=0;exitPerimeter=0;" parent="1" source="43" target="51" edge="1">
                    <mxGeometry width="50" height="50" relative="1" as="geometry">
                        <mxPoint x="331" y="1100" as="sourcePoint"/>
                        <mxPoint x="381" y="1050" as="targetPoint"/>
                    </mxGeometry>
                </mxCell>
                <mxCell id="56" value="NEWSDATA.IO" style="sketch=0;points=[[0,0,0],[0.25,0,0],[0.5,0,0],[0.75,0,0],[1,0,0],[0,1,0],[0.25,1,0],[0.5,1,0],[0.75,1,0],[1,1,0],[0,0.25,0],[0,0.5,0],[0,0.75,0],[1,0.25,0],[1,0.5,0],[1,0.75,0]];outlineConnect=0;fontColor=#232F3E;gradientColor=#4D72F3;gradientDirection=north;fillColor=#3334B9;strokeColor=#ffffff;dashed=0;verticalLabelPosition=bottom;verticalAlign=top;align=center;html=1;fontSize=12;fontStyle=0;aspect=fixed;shape=mxgraph.aws4.resourceIcon;resIcon=mxgraph.aws4.cloud_control_api;labelBackgroundColor=none;strokeWidth=4;" parent="1" vertex="1">
                    <mxGeometry x="631.75" y="43" width="78" height="78" as="geometry"/>
                </mxCell>
                <mxCell id="58" value="ChatGPT" style="sketch=0;points=[[0,0,0],[0.25,0,0],[0.5,0,0],[0.75,0,0],[1,0,0],[0,1,0],[0.25,1,0],[0.5,1,0],[0.75,1,0],[1,1,0],[0,0.25,0],[0,0.5,0],[0,0.75,0],[1,0.25,0],[1,0.5,0],[1,0.75,0]];outlineConnect=0;fontColor=#232F3E;gradientColor=#4D72F3;gradientDirection=north;fillColor=#3334B9;strokeColor=#ffffff;dashed=0;verticalLabelPosition=bottom;verticalAlign=top;align=center;html=1;fontSize=12;fontStyle=0;aspect=fixed;shape=mxgraph.aws4.resourceIcon;resIcon=mxgraph.aws4.cloud_control_api;labelBackgroundColor=none;strokeWidth=4;" parent="1" vertex="1">
                    <mxGeometry x="873.5" y="107" width="78" height="78" as="geometry"/>
                </mxCell>
                <mxCell id="59" value="GoogleSearch" style="sketch=0;points=[[0,0,0],[0.25,0,0],[0.5,0,0],[0.75,0,0],[1,0,0],[0,1,0],[0.25,1,0],[0.5,1,0],[0.75,1,0],[1,1,0],[0,0.25,0],[0,0.5,0],[0,0.75,0],[1,0.25,0],[1,0.5,0],[1,0.75,0]];outlineConnect=0;fontColor=#232F3E;gradientColor=#4D72F3;gradientDirection=north;fillColor=#3334B9;strokeColor=#ffffff;dashed=0;verticalLabelPosition=bottom;verticalAlign=top;align=center;html=1;fontSize=12;fontStyle=0;aspect=fixed;shape=mxgraph.aws4.resourceIcon;resIcon=mxgraph.aws4.cloud_control_api;labelBackgroundColor=none;strokeWidth=4;" parent="1" vertex="1">
                    <mxGeometry x="872.25" y="-20" width="78" height="78" as="geometry"/>
                </mxCell>
                <mxCell id="62" value="" style="endArrow=classic;html=1;labelBackgroundColor=none;strokeColor=#000000;strokeWidth=4;fontSize=14;fontColor=none;exitX=0.5;exitY=0;exitDx=0;exitDy=0;exitPerimeter=0;" parent="1" source="5" target="56" edge="1">
                    <mxGeometry width="50" height="50" relative="1" as="geometry">
                        <mxPoint x="852.5" y="49" as="sourcePoint"/>
                        <mxPoint x="902.5" y="-1" as="targetPoint"/>
                        <Array as="points">
                            <mxPoint x="457" y="80"/>
                            <mxPoint x="593" y="80"/>
                        </Array>
                    </mxGeometry>
                </mxCell>
                <mxCell id="63" value="&lt;font color=&quot;#000000&quot;&gt;Texts&lt;br&gt;&lt;/font&gt;" style="verticalLabelPosition=bottom;html=1;verticalAlign=top;align=center;shape=mxgraph.azure.cloud_services_configuration_file;pointerEvents=1;labelBackgroundColor=none;fontSize=11;fillColor=#0050ef;fontColor=#ffffff;strokeColor=#001DBC;" parent="1" vertex="1">
                    <mxGeometry x="760" y="121" width="47.5" height="50" as="geometry"/>
                </mxCell>
                <mxCell id="64" value="&lt;font color=&quot;#000000&quot;&gt;Image?&lt;/font&gt;" style="sketch=0;outlineConnect=0;dashed=0;verticalLabelPosition=bottom;verticalAlign=top;align=center;html=1;fontSize=12;fontStyle=0;aspect=fixed;pointerEvents=1;shape=mxgraph.aws4.container_registry_image;labelBackgroundColor=none;strokeWidth=4;fillColor=#0050ef;fontColor=#ffffff;strokeColor=#001DBC;" parent="1" vertex="1">
                    <mxGeometry x="759.5" y="-5" width="48" height="48" as="geometry"/>
                </mxCell>
                <mxCell id="65" value="" style="endArrow=classic;html=1;labelBackgroundColor=none;strokeColor=#000000;strokeWidth=4;fontSize=14;fontColor=#000000;exitX=1;exitY=0.5;exitDx=0;exitDy=0;exitPerimeter=0;" parent="1" source="56" target="64" edge="1">
                    <mxGeometry width="50" height="50" relative="1" as="geometry">
                        <mxPoint x="919.5" y="229" as="sourcePoint"/>
                        <mxPoint x="969.5" y="179" as="targetPoint"/>
                        <Array as="points">
                            <mxPoint x="729.5" y="82"/>
                            <mxPoint x="729.5" y="19"/>
                        </Array>
                    </mxGeometry>
                </mxCell>
                <mxCell id="66" value="" style="endArrow=classic;html=1;labelBackgroundColor=none;strokeColor=#000000;strokeWidth=4;fontSize=14;fontColor=#000000;exitX=1;exitY=0.5;exitDx=0;exitDy=0;exitPerimeter=0;entryX=0;entryY=0.5;entryDx=0;entryDy=0;entryPerimeter=0;" parent="1" source="56" target="63" edge="1">
                    <mxGeometry width="50" height="50" relative="1" as="geometry">
                        <mxPoint x="919.5" y="229" as="sourcePoint"/>
                        <mxPoint x="969.5" y="179" as="targetPoint"/>
                        <Array as="points">
                            <mxPoint x="729.5" y="82"/>
                            <mxPoint x="729.5" y="146"/>
                        </Array>
                    </mxGeometry>
                </mxCell>
                <mxCell id="67" value="" style="endArrow=classic;html=1;labelBackgroundColor=none;strokeColor=#000000;strokeWidth=4;fontSize=14;fontColor=#000000;exitX=1;exitY=0.5;exitDx=0;exitDy=0;exitPerimeter=0;entryX=0;entryY=0.5;entryDx=0;entryDy=0;entryPerimeter=0;" parent="1" source="63" target="58" edge="1">
                    <mxGeometry width="50" height="50" relative="1" as="geometry">
                        <mxPoint x="919.5" y="229" as="sourcePoint"/>
                        <mxPoint x="969.5" y="179" as="targetPoint"/>
                    </mxGeometry>
                </mxCell>
                <mxCell id="68" value="" style="endArrow=classic;html=1;labelBackgroundColor=none;strokeColor=#000000;strokeWidth=4;fontSize=14;fontColor=#000000;entryX=0;entryY=0.5;entryDx=0;entryDy=0;entryPerimeter=0;" parent="1" source="64" target="59" edge="1">
                    <mxGeometry width="50" height="50" relative="1" as="geometry">
                        <mxPoint x="919.5" y="229" as="sourcePoint"/>
                        <mxPoint x="969.5" y="179" as="targetPoint"/>
                    </mxGeometry>
                </mxCell>
                <mxCell id="71" value="Result" style="html=1;verticalLabelPosition=bottom;align=center;labelBackgroundColor=none;verticalAlign=top;strokeWidth=2;strokeColor=#0080F0;shadow=0;dashed=0;shape=mxgraph.ios7.icons.documents;fontSize=14;fontColor=#000000;fillColor=none;" parent="1" vertex="1">
                    <mxGeometry x="1059.5" y="49" width="40" height="50" as="geometry"/>
                </mxCell>
                <mxCell id="73" value="" style="endArrow=classic;html=1;labelBackgroundColor=none;strokeColor=#000000;strokeWidth=4;fontSize=14;fontColor=#000000;entryX=0.006;entryY=0.603;entryDx=0;entryDy=0;entryPerimeter=0;exitX=1;exitY=0.5;exitDx=0;exitDy=0;exitPerimeter=0;" parent="1" source="58" target="71" edge="1">
                    <mxGeometry width="50" height="50" relative="1" as="geometry">
                        <mxPoint x="919.5" y="249" as="sourcePoint"/>
                        <mxPoint x="969.5" y="199" as="targetPoint"/>
                        <Array as="points">
                            <mxPoint x="1019.5" y="146"/>
                            <mxPoint x="1019.5" y="79"/>
                        </Array>
                    </mxGeometry>
                </mxCell>
                <mxCell id="74" value="" style="endArrow=classic;html=1;labelBackgroundColor=none;strokeColor=#000000;strokeWidth=4;fontSize=14;fontColor=#000000;entryX=-0.003;entryY=0.599;entryDx=0;entryDy=0;entryPerimeter=0;exitX=1;exitY=0.5;exitDx=0;exitDy=0;exitPerimeter=0;" parent="1" source="59" target="71" edge="1">
                    <mxGeometry width="50" height="50" relative="1" as="geometry">
                        <mxPoint x="919.5" y="249" as="sourcePoint"/>
                        <mxPoint x="969.5" y="199" as="targetPoint"/>
                        <Array as="points">
                            <mxPoint x="1019.5" y="19"/>
                            <mxPoint x="1019.5" y="79"/>
                        </Array>
                    </mxGeometry>
                </mxCell>
                <mxCell id="76" value="" style="endArrow=classic;html=1;labelBackgroundColor=none;strokeColor=#000000;strokeWidth=4;fontSize=14;fontColor=#000000;exitX=0.542;exitY=0.069;exitDx=0;exitDy=0;exitPerimeter=0;" parent="1" source="71" edge="1">
                    <mxGeometry width="50" height="50" relative="1" as="geometry">
                        <mxPoint x="660" y="270" as="sourcePoint"/>
                        <mxPoint x="420" y="170" as="targetPoint"/>
                        <Array as="points">
                            <mxPoint x="1080" y="-50"/>
                            <mxPoint x="390" y="-50"/>
                            <mxPoint x="390" y="170"/>
                        </Array>
                    </mxGeometry>
                </mxCell>
                <mxCell id="77" value="" style="rounded=1;whiteSpace=wrap;html=1;fillColor=#FFFFFF;strokeColor=#666666;arcSize=6;fontColor=#333333;" vertex="1" parent="1">
                    <mxGeometry x="40" y="-840" width="1291" height="660" as="geometry"/>
                </mxCell>
                <mxCell id="78" value="&lt;font color=&quot;#000000&quot;&gt;Parsing (Python)&lt;/font&gt;" style="outlineConnect=0;dashed=0;verticalLabelPosition=bottom;verticalAlign=top;align=center;html=1;shape=mxgraph.aws3.android;fillColor=#0050ef;strokeColor=#001DBC;fontColor=#ffffff;" vertex="1" parent="1">
                    <mxGeometry x="431.13" y="-600" width="73.5" height="84" as="geometry"/>
                </mxCell>
                <mxCell id="81" value="&lt;font color=&quot;#000000&quot;&gt;DataBase&lt;/font&gt;" style="outlineConnect=0;dashed=0;verticalLabelPosition=bottom;verticalAlign=top;align=center;html=1;shape=mxgraph.aws3.mysql_db_instance;fillColor=#0050ef;fontColor=#ffffff;strokeColor=#001DBC;" vertex="1" parent="1">
                    <mxGeometry x="655.5" y="-500" width="60" height="64.5" as="geometry"/>
                </mxCell>
                <mxCell id="83" value="localhost:9200" style="endArrow=classic;html=1;fontColor=#000000;entryX=0.5;entryY=0;entryDx=0;entryDy=0;entryPerimeter=0;strokeWidth=5;strokeColor=#000000;labelBackgroundColor=none;" edge="1" parent="1" source="78" target="81">
                    <mxGeometry x="-0.1201" y="-19" width="50" height="50" relative="1" as="geometry">
                        <mxPoint x="1001" y="-411" as="sourcePoint"/>
                        <mxPoint x="1171.0000000000002" y="-479" as="targetPoint"/>
                        <Array as="points">
                            <mxPoint x="686" y="-560"/>
                        </Array>
                        <mxPoint as="offset"/>
                    </mxGeometry>
                </mxCell>
                <mxCell id="87" value="NEWSDATA.IO" style="sketch=0;points=[[0,0,0],[0.25,0,0],[0.5,0,0],[0.75,0,0],[1,0,0],[0,1,0],[0.25,1,0],[0.5,1,0],[0.75,1,0],[1,1,0],[0,0.25,0],[0,0.5,0],[0,0.75,0],[1,0.25,0],[1,0.5,0],[1,0.75,0]];outlineConnect=0;fontColor=#232F3E;gradientColor=#4D72F3;gradientDirection=north;fillColor=#3334B9;strokeColor=#ffffff;dashed=0;verticalLabelPosition=bottom;verticalAlign=top;align=center;html=1;fontSize=12;fontStyle=0;aspect=fixed;shape=mxgraph.aws4.resourceIcon;resIcon=mxgraph.aws4.cloud_control_api;labelBackgroundColor=none;strokeWidth=4;" vertex="1" parent="1">
                    <mxGeometry x="642.75" y="-687" width="78" height="78" as="geometry"/>
                </mxCell>
                <mxCell id="88" value="ChatGPT" style="sketch=0;points=[[0,0,0],[0.25,0,0],[0.5,0,0],[0.75,0,0],[1,0,0],[0,1,0],[0.25,1,0],[0.5,1,0],[0.75,1,0],[1,1,0],[0,0.25,0],[0,0.5,0],[0,0.75,0],[1,0.25,0],[1,0.5,0],[1,0.75,0]];outlineConnect=0;fontColor=#232F3E;gradientColor=#4D72F3;gradientDirection=north;fillColor=#3334B9;strokeColor=#ffffff;dashed=0;verticalLabelPosition=bottom;verticalAlign=top;align=center;html=1;fontSize=12;fontStyle=0;aspect=fixed;shape=mxgraph.aws4.resourceIcon;resIcon=mxgraph.aws4.cloud_control_api;labelBackgroundColor=none;strokeWidth=4;" vertex="1" parent="1">
                    <mxGeometry x="884.5" y="-623" width="78" height="78" as="geometry"/>
                </mxCell>
                <mxCell id="89" value="GoogleSearch" style="sketch=0;points=[[0,0,0],[0.25,0,0],[0.5,0,0],[0.75,0,0],[1,0,0],[0,1,0],[0.25,1,0],[0.5,1,0],[0.75,1,0],[1,1,0],[0,0.25,0],[0,0.5,0],[0,0.75,0],[1,0.25,0],[1,0.5,0],[1,0.75,0]];outlineConnect=0;fontColor=#232F3E;gradientColor=#4D72F3;gradientDirection=north;fillColor=#3334B9;strokeColor=#ffffff;dashed=0;verticalLabelPosition=bottom;verticalAlign=top;align=center;html=1;fontSize=12;fontStyle=0;aspect=fixed;shape=mxgraph.aws4.resourceIcon;resIcon=mxgraph.aws4.cloud_control_api;labelBackgroundColor=none;strokeWidth=4;" vertex="1" parent="1">
                    <mxGeometry x="883.25" y="-750" width="78" height="78" as="geometry"/>
                </mxCell>
                <mxCell id="90" value="" style="endArrow=classic;html=1;labelBackgroundColor=none;strokeColor=#000000;strokeWidth=4;fontSize=14;fontColor=none;exitX=0.5;exitY=0;exitDx=0;exitDy=0;exitPerimeter=0;" edge="1" parent="1" source="78" target="87">
                    <mxGeometry width="50" height="50" relative="1" as="geometry">
                        <mxPoint x="863.5" y="-681" as="sourcePoint"/>
                        <mxPoint x="913.5" y="-731" as="targetPoint"/>
                        <Array as="points">
                            <mxPoint x="468" y="-650"/>
                            <mxPoint x="604" y="-650"/>
                        </Array>
                    </mxGeometry>
                </mxCell>
                <mxCell id="91" value="&lt;font color=&quot;#000000&quot;&gt;Texts&lt;br&gt;&lt;/font&gt;" style="verticalLabelPosition=bottom;html=1;verticalAlign=top;align=center;shape=mxgraph.azure.cloud_services_configuration_file;pointerEvents=1;labelBackgroundColor=none;fontSize=11;fillColor=#0050ef;fontColor=#ffffff;strokeColor=#001DBC;" vertex="1" parent="1">
                    <mxGeometry x="771" y="-609" width="47.5" height="50" as="geometry"/>
                </mxCell>
                <mxCell id="92" value="&lt;font color=&quot;#000000&quot;&gt;Image?&lt;/font&gt;" style="sketch=0;outlineConnect=0;dashed=0;verticalLabelPosition=bottom;verticalAlign=top;align=center;html=1;fontSize=12;fontStyle=0;aspect=fixed;pointerEvents=1;shape=mxgraph.aws4.container_registry_image;labelBackgroundColor=none;strokeWidth=4;fillColor=#0050ef;fontColor=#ffffff;strokeColor=#001DBC;" vertex="1" parent="1">
                    <mxGeometry x="770.5" y="-735" width="48" height="48" as="geometry"/>
                </mxCell>
                <mxCell id="93" value="" style="endArrow=classic;html=1;labelBackgroundColor=none;strokeColor=#000000;strokeWidth=4;fontSize=14;fontColor=#000000;exitX=1;exitY=0.5;exitDx=0;exitDy=0;exitPerimeter=0;" edge="1" parent="1" source="87" target="92">
                    <mxGeometry width="50" height="50" relative="1" as="geometry">
                        <mxPoint x="930.5" y="-501" as="sourcePoint"/>
                        <mxPoint x="980.5" y="-551" as="targetPoint"/>
                        <Array as="points">
                            <mxPoint x="740.5" y="-648"/>
                            <mxPoint x="740.5" y="-711"/>
                        </Array>
                    </mxGeometry>
                </mxCell>
                <mxCell id="94" value="" style="endArrow=classic;html=1;labelBackgroundColor=none;strokeColor=#000000;strokeWidth=4;fontSize=14;fontColor=#000000;exitX=1;exitY=0.5;exitDx=0;exitDy=0;exitPerimeter=0;entryX=0;entryY=0.5;entryDx=0;entryDy=0;entryPerimeter=0;" edge="1" parent="1" source="87" target="91">
                    <mxGeometry width="50" height="50" relative="1" as="geometry">
                        <mxPoint x="930.5" y="-501" as="sourcePoint"/>
                        <mxPoint x="980.5" y="-551" as="targetPoint"/>
                        <Array as="points">
                            <mxPoint x="740.5" y="-648"/>
                            <mxPoint x="740.5" y="-584"/>
                        </Array>
                    </mxGeometry>
                </mxCell>
                <mxCell id="95" value="" style="endArrow=classic;html=1;labelBackgroundColor=none;strokeColor=#000000;strokeWidth=4;fontSize=14;fontColor=#000000;exitX=1;exitY=0.5;exitDx=0;exitDy=0;exitPerimeter=0;entryX=0;entryY=0.5;entryDx=0;entryDy=0;entryPerimeter=0;" edge="1" parent="1" source="91" target="88">
                    <mxGeometry width="50" height="50" relative="1" as="geometry">
                        <mxPoint x="930.5" y="-501" as="sourcePoint"/>
                        <mxPoint x="980.5" y="-551" as="targetPoint"/>
                    </mxGeometry>
                </mxCell>
                <mxCell id="96" value="" style="endArrow=classic;html=1;labelBackgroundColor=none;strokeColor=#000000;strokeWidth=4;fontSize=14;fontColor=#000000;entryX=0;entryY=0.5;entryDx=0;entryDy=0;entryPerimeter=0;" edge="1" parent="1" source="92" target="89">
                    <mxGeometry width="50" height="50" relative="1" as="geometry">
                        <mxPoint x="930.5" y="-501" as="sourcePoint"/>
                        <mxPoint x="980.5" y="-551" as="targetPoint"/>
                    </mxGeometry>
                </mxCell>
                <mxCell id="97" value="Result" style="html=1;verticalLabelPosition=bottom;align=center;labelBackgroundColor=none;verticalAlign=top;strokeWidth=2;strokeColor=#0080F0;shadow=0;dashed=0;shape=mxgraph.ios7.icons.documents;fontSize=14;fontColor=#000000;fillColor=none;" vertex="1" parent="1">
                    <mxGeometry x="1070.5" y="-681" width="40" height="50" as="geometry"/>
                </mxCell>
                <mxCell id="98" value="" style="endArrow=classic;html=1;labelBackgroundColor=none;strokeColor=#000000;strokeWidth=4;fontSize=14;fontColor=#000000;entryX=0.006;entryY=0.603;entryDx=0;entryDy=0;entryPerimeter=0;exitX=1;exitY=0.5;exitDx=0;exitDy=0;exitPerimeter=0;" edge="1" parent="1" source="88" target="97">
                    <mxGeometry width="50" height="50" relative="1" as="geometry">
                        <mxPoint x="930.5" y="-481" as="sourcePoint"/>
                        <mxPoint x="980.5" y="-531" as="targetPoint"/>
                        <Array as="points">
                            <mxPoint x="1030.5" y="-584"/>
                            <mxPoint x="1030.5" y="-651"/>
                        </Array>
                    </mxGeometry>
                </mxCell>
                <mxCell id="99" value="" style="endArrow=classic;html=1;labelBackgroundColor=none;strokeColor=#000000;strokeWidth=4;fontSize=14;fontColor=#000000;entryX=-0.003;entryY=0.599;entryDx=0;entryDy=0;entryPerimeter=0;exitX=1;exitY=0.5;exitDx=0;exitDy=0;exitPerimeter=0;" edge="1" parent="1" source="89" target="97">
                    <mxGeometry width="50" height="50" relative="1" as="geometry">
                        <mxPoint x="930.5" y="-481" as="sourcePoint"/>
                        <mxPoint x="980.5" y="-531" as="targetPoint"/>
                        <Array as="points">
                            <mxPoint x="1030.5" y="-711"/>
                            <mxPoint x="1030.5" y="-651"/>
                        </Array>
                    </mxGeometry>
                </mxCell>
                <mxCell id="100" value="" style="endArrow=classic;html=1;labelBackgroundColor=none;strokeColor=#000000;strokeWidth=4;fontSize=14;fontColor=#000000;exitX=0.542;exitY=0.069;exitDx=0;exitDy=0;exitPerimeter=0;" edge="1" parent="1" source="97">
                    <mxGeometry width="50" height="50" relative="1" as="geometry">
                        <mxPoint x="671" y="-460" as="sourcePoint"/>
                        <mxPoint x="431" y="-560.0000000000005" as="targetPoint"/>
                        <Array as="points">
                            <mxPoint x="1091" y="-780"/>
                            <mxPoint x="401" y="-780"/>
                            <mxPoint x="401" y="-560"/>
                        </Array>
                    </mxGeometry>
                </mxCell>
                <mxCell id="101" value="Terraform" style="image;image=img/lib/atlassian/Jira_Service_Desk_Logo.svg;" vertex="1" parent="1">
                    <mxGeometry x="417.81" y="1037" width="59" height="76" as="geometry"/>
                </mxCell>
                <mxCell id="102" value="" style="endArrow=classic;html=1;exitX=1;exitY=0.5;exitDx=0;exitDy=0;entryX=0.5;entryY=0;entryDx=0;entryDy=0;strokeWidth=4;" edge="1" parent="1" source="101" target="51">
                    <mxGeometry width="50" height="50" relative="1" as="geometry">
                        <mxPoint x="380" y="1210" as="sourcePoint"/>
                        <mxPoint x="430" y="1160" as="targetPoint"/>
                        <Array as="points">
                            <mxPoint x="661" y="1075"/>
                        </Array>
                    </mxGeometry>
                </mxCell>
            </root>
        </mxGraphModel>
    </diagram>
</mxfile>